<?xml version="1.0" standalone="no"?>
<!DOCTYPE svg PUBLIC "-//W3C//DTD SVG 20010904//EN"
 "http://www.w3.org/TR/2001/REC-SVG-20010904/DTD/svg10.dtd">
<svg version="1.0" xmlns="http://www.w3.org/2000/svg"
 width="2048.000000pt" height="2048.000000pt" viewBox="0 0 2048.000000 2048.000000"
 preserveAspectRatio="xMidYMid meet">
<metadata>
Created by potrace 1.14, written by Peter Selinger 2001-2017
</metadata>
<g transform="translate(0.000000,2048.000000) scale(0.100000,-0.100000)"
fill="#000000" stroke="none">
<path d="M0 10240 l0 -10240 10240 0 10240 0 0 10240 0 10240 -10240 0 -10240
0 0 -10240z m15154 3693 c3 -10 42 -160 86 -333 45 -173 86 -332 91 -352 l10
-38 107 0 c131 0 224 -19 303 -61 201 -108 224 -319 68 -631 -109 -217 -295
-519 -439 -714 l-68 -92 133 -110 c73 -61 197 -173 275 -249 143 -138 340
-349 340 -364 0 -8 -415 -362 -428 -366 -4 -1 -36 35 -72 80 -96 120 -309 364
-376 429 l-59 57 -150 -1262 -150 -1262 -287 -3 c-268 -2 -288 -1 -288 15 0
18 256 2177 264 2221 4 27 15 34 -154 -98 -120 -94 -474 -348 -517 -371 -13
-7 -24 -10 -26 -8 -3 3 -231 273 -354 420 -12 14 0 24 109 89 713 426 1270
973 1563 1535 67 129 70 163 15 182 -25 9 -191 12 -603 12 -536 1 -568 2 -564
19 3 9 18 133 33 275 l27 257 354 0 c333 0 354 1 349 18 -3 9 -44 168 -91 352
-47 184 -88 343 -91 353 -5 16 13 17 290 17 272 0 295 -1 300 -17z m-10538
-50 c-3 -21 -17 -128 -31 -238 -14 -110 -27 -212 -30 -227 l-4 -28 994 0 c718
0 995 -3 995 -11 0 -16 -49 -418 -55 -456 l-6 -33 -850 0 c-551 0 -848 -3
-844 -10 3 -5 99 -72 213 -148 481 -321 953 -559 1547 -782 104 -39 191 -73
193 -75 3 -3 -275 -341 -328 -398 -16 -17 -23 -15 -171 46 -643 269 -1210 600
-1690 988 l-96 77 -28 -236 c-16 -131 -44 -370 -64 -532 l-36 -295 -298 -3
c-182 -1 -297 1 -297 7 0 12 118 997 123 1028 5 27 15 33 -144 -84 -474 -346
-1073 -666 -1774 -947 l-90 -36 -192 192 c-106 106 -193 195 -193 198 0 3 46
21 102 39 460 149 1051 409 1438 631 115 67 432 273 490 319 l25 21 -807 0
c-746 0 -808 1 -808 17 0 18 47 401 55 451 l6 32 998 0 997 0 32 258 c18 141
32 260 32 265 0 4 135 7 301 7 l301 0 -6 -37z m13334 7 c0 -15 -179 -1502
-185 -1537 l-6 -33 536 0 c294 0 535 -3 535 -7 0 -5 -14 -132 -30 -283 -16
-151 -30 -278 -30 -282 0 -5 -243 -8 -540 -8 l-540 0 -4 -22 c-3 -13 -66 -538
-141 -1168 -74 -630 -138 -1164 -141 -1187 l-6 -43 719 -2 719 -3 -33 -270
c-17 -148 -32 -276 -32 -282 -1 -10 -340 -13 -1661 -13 l-1660 0 0 25 c0 13
14 137 30 275 17 138 30 255 30 260 0 6 230 10 630 10 l629 0 6 33 c3 17 66
543 140 1167 74 624 137 1154 140 1178 l6 42 -536 0 -536 0 5 33 c3 17 17 133
31 257 14 124 28 240 31 258 l5 32 534 0 c294 0 535 4 535 8 0 15 179 1505
185 1540 l6 32 314 0 c194 0 315 -4 315 -10z m-5615 -214 c171 -52 252 -146
276 -321 10 -73 5 -139 -60 -779 -40 -385 -74 -703 -77 -708 -6 -10 -4604 -11
-4604 -1 0 40 174 1455 185 1505 38 175 154 288 325 317 32 5 844 8 1975 7
1821 -1 1923 -3 1980 -20z m-2215 -1892 c0 -3 -74 -86 -165 -184 -91 -98 -165
-181 -165 -184 0 -3 456 -7 1013 -8 l1012 -3 69 -27 c88 -36 197 -108 236
-158 96 -121 112 -272 45 -414 -37 -77 -85 -128 -283 -294 -1210 -1014 -1974
-1438 -3186 -1768 -305 -83 -1098 -256 -1110 -243 -15 16 -308 501 -304 504 2
2 112 27 243 55 284 60 778 181 1007 245 369 104 716 227 1016 360 150 66 152
67 130 84 -13 10 -220 160 -460 335 l-438 317 -132 -108 c-73 -60 -206 -166
-295 -236 l-162 -127 -413 1 -413 0 35 29 c19 15 130 104 245 196 250 199 462
377 681 570 170 151 656 614 713 680 18 21 110 117 204 212 l170 172 353 0
c195 0 354 -3 354 -6z m-4530 -141 c0 -5 -11 -105 -25 -223 -14 -118 -25 -227
-25 -242 l0 -28 505 0 504 0 -5 -47 c-4 -27 -16 -133 -28 -238 l-21 -190 -463
-3 c-254 -1 -462 -4 -462 -7 0 -22 278 -436 419 -623 180 -239 317 -398 519
-604 l184 -187 -143 -93 c-79 -51 -180 -116 -224 -145 -95 -62 -70 -75 -234
122 -250 300 -483 621 -649 895 -20 34 -21 34 -26 10 -3 -14 -35 -315 -71
-670 -36 -355 -69 -660 -72 -677 l-5 -33 -264 0 c-261 0 -264 0 -264 21 0 12
32 314 70 671 39 358 70 652 68 653 -2 2 -55 -63 -120 -143 -235 -296 -523
-603 -756 -806 -83 -71 -106 -87 -121 -80 -10 5 -106 69 -214 143 l-196 134
107 85 c286 228 598 539 928 927 88 103 314 389 314 397 0 4 -179 9 -398 10
l-398 3 33 230 c17 127 32 233 33 238 0 4 205 7 455 7 356 0 457 3 460 13 4
11 55 455 55 478 0 5 107 9 265 9 146 0 265 -3 265 -7z m-2470 -5 c0 -2 -14
-109 -30 -238 -16 -129 -30 -238 -30 -242 0 -5 183 -8 406 -8 l406 0 -5 -32
c-3 -18 -16 -126 -28 -240 l-23 -208 -408 0 c-336 0 -408 -2 -408 -14 0 -7 66
-74 148 -148 216 -199 667 -670 660 -689 -3 -6 -65 -54 -344 -266 l-31 -23
-59 82 c-74 103 -244 323 -349 452 l-80 98 -6 -39 c-4 -21 -44 -359 -90 -750
l-84 -713 -272 0 c-227 0 -273 2 -273 14 0 18 138 1187 146 1240 6 36 -4 26
-134 -135 -77 -96 -198 -239 -269 -319 -163 -182 -421 -433 -438 -426 -22 8
-395 287 -394 294 0 4 50 48 111 97 232 189 598 567 830 856 107 135 264 348
274 372 6 16 -26 17 -440 17 -418 0 -446 1 -446 18 0 9 14 114 30 232 16 118
30 218 30 222 0 5 225 8 500 8 373 0 500 3 500 12 0 15 48 404 55 446 l6 32
269 0 c149 0 270 -1 270 -2z m3730 -4253 c0 -7 -178 -1473 -185 -1522 l-6 -43
-115 0 c-63 0 -114 4 -114 9 0 14 179 1480 186 1524 l6 37 114 0 c63 0 114 -2
114 -5z m4005 -32 c-15 -106 -45 -361 -45 -380 l0 -23 188 0 c249 0 330 -21
414 -106 52 -51 76 -107 90 -202 11 -75 9 -107 -33 -449 l-44 -368 -118 -3
-118 -3 6 33 c18 106 75 619 75 678 0 46 -6 82 -16 103 -46 90 -96 107 -315
107 l-157 0 -6 -37 c-8 -49 -106 -859 -106 -873 0 -6 -43 -10 -115 -10 -101 0
-115 2 -115 17 0 22 179 1502 185 1531 5 21 9 22 120 22 l115 0 -5 -37z
m-6065 -409 c113 -26 199 -95 242 -192 28 -62 34 -192 18 -343 l-13 -119 -383
0 -384 0 0 -60 c0 -110 40 -171 130 -197 47 -13 93 -15 303 -10 l249 5 -7 -91
c-4 -58 -12 -98 -21 -107 -12 -12 -60 -15 -292 -15 -259 0 -282 1 -348 22
-171 54 -248 169 -247 368 0 124 30 335 59 423 59 177 169 278 346 317 86 19
268 18 348 -1z m4190 6 c80 -15 166 -58 206 -103 80 -88 99 -194 77 -417 -26
-263 -69 -387 -166 -485 -106 -105 -225 -139 -472 -133 -136 4 -169 8 -218 27
-88 35 -137 77 -176 153 -30 59 -35 78 -39 165 -7 156 29 412 74 519 58 138
197 249 344 273 76 12 306 13 370 1z m3470 -6 c113 -26 199 -95 242 -192 28
-62 34 -192 18 -343 l-13 -119 -383 0 -384 0 0 -60 c0 -110 40 -171 130 -197
47 -13 93 -15 303 -10 l249 5 -7 -91 c-4 -58 -12 -98 -21 -107 -12 -12 -60
-15 -292 -15 -259 0 -282 1 -348 22 -171 54 -248 169 -247 368 0 124 30 335
59 423 59 177 169 278 346 317 86 19 268 18 348 -1z m2760 6 c80 -15 166 -58
206 -103 80 -88 99 -194 77 -417 -26 -263 -69 -387 -166 -485 -106 -105 -225
-139 -472 -133 -136 4 -169 8 -218 27 -88 35 -137 77 -176 153 -30 59 -35 78
-39 165 -7 156 29 412 74 519 58 138 197 249 344 273 76 12 306 13 370 1z
m-11316 -97 c-7 -54 -13 -101 -14 -105 0 -3 -114 -8 -252 -10 -289 -4 -317
-10 -343 -72 -21 -49 -19 -79 6 -110 29 -37 45 -42 205 -61 226 -28 289 -56
340 -155 24 -47 25 -193 1 -271 -45 -150 -138 -220 -331 -250 -71 -12 -531 -7
-543 5 -3 3 0 53 7 111 l13 106 101 -8 c56 -4 173 -8 261 -8 152 0 162 1 203
25 61 35 91 101 74 164 -14 51 -45 64 -192 82 -212 25 -280 46 -337 104 -42
43 -57 103 -50 203 8 117 30 171 96 238 94 94 154 106 512 108 l255 1 -12 -97z
m2147 69 c76 -30 142 -90 175 -159 46 -93 45 -216 -5 -609 -23 -177 -41 -325
-41 -328 0 -3 -52 -6 -115 -6 -74 0 -115 4 -115 11 0 5 18 159 41 342 44 359
45 423 9 482 -42 68 -81 79 -285 83 l-181 4 -55 -459 -54 -458 -117 -3 -118
-3 5 28 c3 15 32 253 65 528 33 275 63 517 66 538 l6 38 331 -3 c318 -3 334
-4 388 -26z m1244 1 c-3 -16 -23 -178 -46 -362 -42 -354 -43 -397 -5 -454 40
-60 69 -67 278 -67 l187 0 6 33 c5 30 105 858 105 871 0 9 230 8 230 -1 0 -5
-30 -259 -67 -565 l-68 -558 -310 0 c-336 0 -370 4 -465 56 -94 51 -146 145
-157 283 -4 57 5 162 36 421 24 190 44 351 46 358 3 9 36 12 119 12 l116 0 -5
-27z m3032 -1 c-3 -16 -9 -63 -13 -105 l-7 -75 -256 -4 c-220 -3 -261 -6 -292
-21 -41 -20 -59 -52 -59 -103 0 -76 32 -96 180 -114 245 -28 319 -56 367 -138
26 -44 28 -54 27 -157 0 -141 -23 -205 -98 -281 -97 -97 -213 -120 -559 -111
-126 3 -231 7 -233 10 -6 6 21 205 28 212 3 3 71 0 152 -6 204 -16 350 -10
400 17 51 26 76 60 83 112 7 53 -11 97 -45 111 -15 6 -95 20 -177 31 -198 26
-245 41 -299 93 -58 55 -74 124 -57 240 19 134 69 216 164 264 84 42 160 51
441 52 l259 1 -6 -28z m3993 11 c0 -9 -5 -56 -11 -105 l-12 -88 -201 0 c-228
0 -282 -10 -342 -62 -66 -58 -85 -116 -109 -325 -15 -130 -15 -148 -1 -197 21
-71 65 -110 143 -127 45 -9 101 -10 248 -1 104 6 191 9 193 7 10 -10 -16 -198
-28 -205 -21 -13 -227 -23 -382 -18 -117 4 -153 9 -201 27 -89 35 -137 77
-177 155 l-35 69 1 146 c2 408 110 636 336 710 89 28 88 28 346 30 211 1 232
-1 232 -16z m2831 -11 c163 -66 232 -214 208 -446 -11 -111 -67 -567 -75 -618
l-6 -38 -114 0 c-63 0 -114 3 -114 6 0 3 18 155 41 337 46 373 47 435 7 494
-44 67 -79 78 -253 78 l-150 0 -54 -457 -55 -458 -116 0 -116 0 53 423 c28
232 52 439 52 460 l1 37 -230 0 c-143 0 -230 -4 -230 -10 0 -16 -99 -842 -105
-877 l-6 -33 -116 0 -115 0 5 33 c3 17 33 262 67 542 33 281 63 520 66 533 l5
23 647 -3 647 -3 56 -23z m-4028 -864 c27 -29 29 -34 22 -87 -9 -73 -26 -113
-60 -139 -23 -18 -41 -22 -102 -22 -70 0 -77 2 -105 30 -29 29 -30 34 -24 88
17 142 59 178 191 166 40 -4 56 -11 78 -36z"/>
<path d="M8606 13188 c-7 -32 -86 -748 -86 -776 l0 -22 403 2 402 3 42 390
c23 215 42 398 42 408 1 16 -24 17 -399 17 l-400 0 -4 -22z"/>
<path d="M9929 13208 c-6 -24 -85 -805 -82 -810 2 -5 184 -8 403 -8 l399 0 6
33 c7 46 85 743 85 767 0 20 -5 20 -405 20 -223 0 -405 -1 -406 -2z"/>
<path d="M11260 13203 c0 -5 -20 -186 -45 -403 -25 -217 -45 -398 -45 -402 0
-5 176 -8 390 -8 241 0 390 4 390 10 0 5 20 187 45 404 25 218 45 398 45 401
0 3 -175 5 -390 5 -214 0 -390 -3 -390 -7z"/>
<path d="M9232 10827 l-63 -64 545 -362 c331 -221 552 -361 561 -358 46 18
396 267 597 424 352 276 466 378 444 400 -18 19 -189 22 -1056 23 l-966 0 -62
-63z"/>
<path d="M4501 6750 c-102 -22 -182 -113 -198 -225 l-6 -45 264 2 264 3 3 65
c3 86 -25 145 -85 178 -47 26 -170 37 -242 22z"/>
<path d="M8663 6740 c-92 -20 -153 -69 -188 -154 -16 -37 -55 -296 -55 -360 0
-101 59 -176 155 -196 77 -16 226 -8 283 15 56 23 118 95 137 158 21 69 48
301 43 363 -10 125 -76 175 -236 180 -53 2 -116 -1 -139 -6z"/>
<path d="M12161 6750 c-102 -22 -182 -113 -198 -225 l-6 -45 264 2 264 3 3 65
c3 86 -25 145 -85 178 -47 26 -170 37 -242 22z"/>
<path d="M14893 6740 c-92 -20 -153 -69 -188 -154 -16 -37 -55 -296 -55 -360
0 -101 59 -176 155 -196 77 -16 226 -8 283 15 56 23 118 95 137 158 21 69 48
301 43 363 -10 125 -74 173 -235 179 -54 2 -117 0 -140 -5z"/>
</g>
</svg>
